<svg width="640" height="512" viewBox="0 0 640 512" fill="none" xmlns="http://www.w3.org/2000/svg">
<g clip-path="url(#clip0_6_2)">
<path d="M96 64C96 28.7 124.7 0 160 0H266.3C292.5 0 316 15.9 325.7 40.2L373.7 160H480V126.2C480 101.4 485.8 76.9 496.9 54.6L499.4 49.6C507.3 33.8 526.5 27.4 542.3 35.3C558.1 43.2 564.5 62.4 556.6 78.2L554.1 83.2C547.4 96.5 544 111.2 544 126.1V160H600C622.1 160 640 177.9 640 200V245.4C640 261.9 631.5 277.3 617.4 286.1L574.1 313.2C559.9 307.3 544.3 304 528 304C488.7 304 453.9 322.9 432 352H352C352 369.7 337.7 384 320 384H311.8C310.1 388.8 308.1 393.5 306 398.1L311.8 403.9C324.3 416.4 324.3 436.7 311.8 449.2L289.2 471.8C276.7 484.3 256.4 484.3 243.9 471.8L238.1 466C233.5 468.2 228.8 470.1 224 471.8V480C224 497.7 209.7 512 192 512H160C142.3 512 128 497.7 128 480V471.8C123.2 470.1 118.5 468.1 113.9 466L108.1 471.8C95.6 484.3 75.3 484.3 62.8 471.8L40.2 449.1C27.7 436.6 27.7 416.3 40.2 403.8L46 398C43.8 393.4 41.9 388.7 40.2 383.9H32C14.3 383.9 0 369.6 0 351.9V320C0 302.3 14.3 288 32 288H40.2C41.9 283.2 43.9 278.5 46 273.9L40.2 268.1C27.7 255.6 27.7 235.3 40.2 222.8L62.8 200.2C71.8 191.2 84.7 188.7 95.9 192.6V192V160V64H96ZM266.3 64H160V160H192H304.7L266.3 64ZM176 256C131.8 256 96 291.8 96 336C96 380.2 131.8 416 176 416C220.2 416 256 380.2 256 336C256 291.8 220.2 256 176 256ZM528 448C541.3 448 552 437.3 552 424C552 410.7 541.3 400 528 400C514.7 400 504 410.7 504 424C504 437.3 514.7 448 528 448ZM528 512C479.4 512 440 472.6 440 424C440 394.2 454.8 367.9 477.4 352C491.7 341.9 509.2 336 528 336C530.7 336 533.3 336.1 535.9 336.3C580.8 340.3 616 378 616 424C616 472.6 576.6 512 528 512Z" fill="#012840"/>
</g>
<defs>
<clipPath id="clip0_6_2">
<rect width="640" height="512" fill="white"/>
</clipPath>
</defs>
</svg>
